<svg width="705" height="159" viewBox="0 0 705 159" fill="none" xmlns="http://www.w3.org/2000/svg">
<path d="M98.292 129.433C98.292 93.182 0 90.394 0 40.2C0 16.038 22.533 0 53.45 0C69.713 0 87.137 4.41602 100.855 14.878V49.726C85.509 29.046 62.976 8.14001 36.251 8.14001C18.359 8.14001 6.98001 17.666 6.98001 29.288C6.98001 63.218 105.272 66.232 105.272 118.989C105.272 143.618 83.899 158.254 49.968 158.254C31.141 158.254 13.96 154.08 0.0169983 143.618V108.77C15.345 129.451 38.121 150.131 67.635 150.131C86.93 150.131 98.309 141.765 98.309 129.451L98.292 129.433Z" fill="#DEDACF"/>
<path d="M164.659 79.239C164.659 30.899 195.333 0 241.578 0C287.823 0 318.497 30.899 318.497 79.239C318.497 127.58 287.823 158.237 241.578 158.237C195.333 158.237 164.659 127.563 164.659 79.239ZM199.282 114.555C218.802 137.556 240.418 149.403 260.388 149.403C271.317 149.403 282.003 145.68 291.062 138.024C316.384 117.119 314.063 80.157 283.857 43.924C264.337 20.922 242.496 8.83301 222.751 8.83301C211.597 8.83301 201.136 12.557 192.077 20.212C166.755 41.36 169.076 78.304 199.282 114.555Z" fill="#DEDACF"/>
<path d="M425.687 157.043H428.324V158.237H376.208V157.043H376.44C382.89 157.043 387.433 152.499 387.433 146.049V12.187C387.433 5.73701 382.89 1.19302 376.44 1.19302H376.208V0H445.768C477.322 0 498.365 21.042 498.365 52.347C498.365 83.653 477.803 104.927 446.979 104.927H434.792L456.298 108.757L486.178 148.205C492.039 155.867 505.492 157.043 511.942 157.043H512.173V158.237H446.48V157.043H449.117C458.436 157.274 461.304 152.268 455.567 144.856L425.456 104.945H410.15V141.524C410.15 150.842 416.369 157.061 425.687 157.061V157.043ZM410.15 102.557H426.649C456.048 102.557 475.647 82.958 475.647 53.559C475.647 22.485 455.567 2.173 425.456 2.173H410.15V102.575V102.557Z" fill="#DEDACF"/>
<path d="M589.71 122.883L583.74 138.421C579.446 149.665 584.703 157.06 596.891 157.06H599.529V158.254H563.195V157.06H563.426C569.877 157.06 576.096 152.997 578.252 146.778L633.243 0H635.88L689.677 146.778C691.833 152.997 698.052 157.06 704.503 157.06H704.735V158.254H646.875V157.06H649.263C661.451 157.06 666.708 149.647 662.645 138.421L657.157 122.883H589.746H589.71ZM623.656 32.039L590.191 120.726H656.177L623.656 32.039Z" fill="#DEDACF"/>
</svg>
